<?xml version="1.0" encoding="utf-8" ?>
<svg baseProfile="full" height="1536" version="1.1" viewBox="0 0 1342 1536" width="1342" xmlns="http://www.w3.org/2000/svg" xmlns:ev="http://www.w3.org/2001/xml-events" xmlns:xlink="http://www.w3.org/1999/xlink"><defs /><path d="M 1237 369 L 1237 370 L 1236 371 L 1236 374 L 1235 375 L 1235 377 L 1234 378 L 1234 380 L 1233 381 L 1233 384 L 1232 385 L 1232 389 L 1231 390 L 1231 392 L 1230 393 L 1230 398 L 1229 399 L 1229 402 L 1228 403 L 1228 406 L 1227 407 L 1227 412 L 1226 413 L 1226 416 L 1225 417 L 1225 421 L 1224 422 L 1224 425 L 1223 426 L 1223 429 L 1222 430 L 1222 434 L 1221 435 L 1221 436 L 1220 437 L 1220 439 L 1219 440 L 1219 446 L 1227 446 L 1228 445 L 1229 445 L 1230 444 L 1231 444 L 1231 443 L 1233 441 L 1233 436 L 1234 435 L 1234 388 L 1235 387 L 1235 379 L 1236 378 L 1236 376 L 1237 375 Z" fill="black" /><path d="M 1125 350 L 1125 353 L 1126 354 L 1126 360 L 1127 361 L 1127 367 L 1128 368 L 1128 373 L 1129 374 L 1129 378 L 1130 379 L 1130 385 L 1131 386 L 1131 390 L 1132 391 L 1132 397 L 1133 398 L 1133 402 L 1134 403 L 1134 407 L 1135 408 L 1135 414 L 1136 415 L 1136 419 L 1137 420 L 1137 425 L 1138 426 L 1138 431 L 1139 432 L 1139 435 L 1140 436 L 1140 440 L 1141 441 L 1141 443 L 1142 444 L 1142 446 L 1143 447 L 1143 450 L 1144 451 L 1144 453 L 1145 454 L 1145 456 L 1146 457 L 1146 459 L 1147 460 L 1147 461 L 1148 462 L 1148 463 L 1151 466 L 1152 466 L 1153 465 L 1154 465 L 1158 461 L 1158 460 L 1159 459 L 1159 458 L 1160 457 L 1160 456 L 1161 455 L 1161 451 L 1162 450 L 1162 449 L 1161 448 L 1161 444 L 1160 443 L 1160 442 L 1159 441 L 1159 440 L 1158 439 L 1158 437 L 1157 436 L 1157 435 L 1156 434 L 1156 433 L 1155 432 L 1155 431 L 1154 430 L 1154 429 L 1152 427 L 1152 426 L 1151 425 L 1151 423 L 1150 422 L 1150 421 L 1149 420 L 1149 419 L 1148 418 L 1148 417 L 1147 416 L 1147 414 L 1146 413 L 1146 412 L 1145 411 L 1145 409 L 1144 408 L 1144 406 L 1142 404 L 1142 400 L 1141 399 L 1141 397 L 1140 396 L 1140 394 L 1139 393 L 1139 392 L 1138 391 L 1138 390 L 1137 389 L 1137 384 L 1136 383 L 1136 381 L 1135 380 L 1135 377 L 1134 376 L 1134 375 L 1133 374 L 1133 372 L 1132 371 L 1132 370 L 1131 369 L 1131 367 L 1130 366 L 1130 363 L 1129 362 L 1129 360 L 1128 359 L 1128 356 L 1127 355 L 1127 352 L 1126 351 L 1126 350 Z" fill="black" /><path d="M 354 142 L 353 143 L 345 143 L 344 144 L 335 144 L 334 145 L 327 145 L 326 146 L 320 146 L 319 147 L 314 147 L 313 148 L 309 148 L 308 149 L 303 149 L 302 150 L 298 150 L 297 151 L 293 151 L 292 152 L 288 152 L 287 153 L 284 153 L 283 154 L 282 154 L 281 155 L 275 155 L 274 156 L 271 156 L 270 157 L 266 157 L 265 158 L 263 158 L 262 159 L 260 159 L 259 160 L 257 160 L 256 161 L 253 161 L 252 162 L 250 162 L 249 163 L 247 163 L 246 164 L 243 164 L 242 165 L 241 165 L 240 166 L 238 166 L 237 167 L 236 167 L 235 168 L 233 168 L 231 170 L 229 170 L 228 171 L 227 171 L 226 172 L 223 172 L 222 173 L 221 173 L 220 174 L 219 174 L 217 176 L 216 176 L 215 177 L 214 177 L 212 179 L 210 179 L 209 180 L 203 180 L 202 181 L 201 181 L 200 182 L 200 183 L 199 184 L 199 186 L 200 187 L 200 188 L 201 189 L 201 190 L 205 194 L 206 194 L 211 199 L 211 200 L 214 203 L 215 203 L 224 212 L 225 212 L 231 218 L 232 218 L 238 224 L 239 224 L 244 229 L 245 229 L 250 234 L 251 234 L 255 238 L 256 238 L 263 245 L 264 245 L 268 249 L 269 249 L 271 251 L 272 251 L 275 254 L 276 254 L 279 257 L 280 257 L 283 260 L 284 260 L 285 261 L 285 262 L 286 262 L 296 272 L 297 272 L 327 302 L 327 303 L 334 310 L 334 311 L 337 314 L 337 315 L 338 316 L 338 317 L 340 319 L 340 320 L 342 322 L 342 323 L 343 324 L 343 325 L 345 327 L 345 328 L 346 329 L 346 330 L 347 331 L 347 332 L 348 333 L 348 334 L 350 336 L 350 337 L 351 338 L 351 339 L 353 341 L 353 343 L 355 345 L 355 346 L 356 347 L 356 348 L 357 349 L 357 350 L 360 353 L 360 355 L 362 357 L 362 358 L 363 359 L 363 360 L 364 361 L 364 362 L 366 364 L 366 365 L 367 366 L 367 367 L 368 368 L 368 369 L 369 370 L 369 371 L 370 372 L 370 373 L 371 374 L 371 375 L 372 376 L 372 377 L 373 378 L 373 379 L 374 380 L 374 381 L 375 382 L 375 383 L 376 384 L 376 385 L 377 386 L 377 387 L 378 388 L 378 390 L 379 391 L 379 392 L 380 393 L 380 394 L 381 395 L 381 396 L 382 397 L 382 398 L 383 399 L 383 401 L 384 402 L 384 403 L 385 404 L 385 405 L 386 406 L 386 408 L 387 409 L 387 410 L 388 411 L 388 412 L 389 413 L 389 415 L 390 416 L 390 417 L 391 418 L 391 419 L 392 420 L 392 421 L 393 422 L 393 424 L 394 425 L 394 428 L 396 430 L 396 432 L 397 433 L 397 435 L 398 436 L 398 438 L 399 439 L 399 441 L 400 442 L 400 444 L 401 445 L 401 446 L 402 447 L 402 450 L 403 451 L 403 452 L 404 453 L 404 456 L 405 457 L 405 459 L 406 460 L 406 461 L 407 462 L 407 466 L 408 467 L 408 469 L 409 470 L 409 473 L 410 474 L 410 478 L 411 479 L 411 483 L 412 484 L 412 487 L 413 488 L 413 498 L 414 499 L 414 502 L 415 503 L 415 506 L 416 507 L 416 514 L 417 515 L 417 517 L 418 518 L 418 537 L 417 538 L 417 542 L 416 543 L 416 545 L 415 546 L 415 549 L 414 550 L 414 554 L 413 555 L 413 559 L 412 560 L 412 563 L 411 564 L 411 565 L 410 566 L 410 569 L 409 570 L 409 572 L 408 573 L 408 575 L 407 576 L 407 578 L 406 579 L 406 581 L 405 582 L 405 584 L 404 585 L 404 586 L 403 587 L 403 588 L 402 589 L 402 592 L 400 594 L 400 595 L 399 596 L 399 598 L 398 599 L 398 600 L 397 601 L 397 602 L 395 604 L 395 605 L 394 606 L 394 607 L 392 609 L 392 610 L 391 611 L 391 612 L 390 613 L 390 614 L 389 615 L 389 616 L 388 617 L 388 618 L 386 620 L 386 621 L 385 622 L 385 623 L 383 625 L 383 626 L 382 627 L 382 628 L 380 630 L 380 631 L 379 632 L 379 633 L 378 634 L 378 635 L 376 637 L 376 638 L 375 639 L 375 640 L 373 642 L 373 643 L 372 644 L 372 645 L 371 646 L 371 647 L 369 649 L 369 650 L 367 652 L 367 653 L 365 655 L 365 656 L 363 658 L 363 659 L 361 661 L 361 662 L 359 664 L 359 665 L 357 667 L 357 668 L 355 670 L 355 671 L 353 673 L 353 675 L 351 677 L 351 678 L 350 679 L 350 680 L 349 681 L 349 682 L 348 683 L 348 684 L 347 685 L 347 686 L 346 687 L 346 688 L 345 689 L 345 690 L 344 691 L 344 693 L 343 694 L 343 695 L 342 696 L 342 698 L 341 699 L 341 701 L 340 702 L 340 704 L 339 705 L 339 707 L 338 708 L 338 711 L 337 712 L 337 725 L 336 726 L 336 730 L 337 731 L 337 750 L 338 751 L 338 757 L 339 758 L 339 762 L 340 763 L 340 766 L 341 767 L 341 768 L 342 769 L 342 772 L 343 773 L 343 775 L 344 776 L 344 777 L 345 778 L 345 783 L 346 784 L 346 785 L 347 786 L 347 788 L 348 789 L 348 791 L 353 796 L 355 796 L 356 797 L 356 799 L 357 800 L 357 802 L 358 803 L 358 804 L 359 805 L 359 806 L 360 807 L 360 808 L 362 810 L 362 811 L 364 813 L 364 814 L 366 816 L 366 817 L 367 818 L 367 819 L 380 832 L 381 832 L 384 835 L 385 835 L 387 837 L 388 837 L 389 838 L 390 838 L 391 839 L 392 839 L 393 840 L 395 840 L 396 841 L 397 841 L 398 842 L 400 842 L 401 843 L 404 843 L 405 844 L 409 844 L 410 845 L 414 845 L 415 846 L 415 847 L 414 848 L 414 849 L 413 850 L 413 852 L 411 854 L 411 856 L 410 857 L 410 858 L 409 859 L 409 860 L 408 861 L 408 862 L 407 863 L 407 865 L 406 866 L 406 867 L 405 868 L 405 869 L 404 870 L 404 872 L 403 873 L 403 874 L 402 875 L 402 878 L 401 879 L 401 882 L 400 883 L 400 887 L 399 888 L 399 891 L 398 892 L 398 893 L 397 894 L 397 895 L 398 896 L 398 898 L 397 899 L 397 930 L 398 931 L 398 932 L 399 933 L 401 933 L 402 934 L 405 934 L 406 935 L 409 935 L 412 932 L 412 931 L 413 930 L 413 928 L 414 927 L 414 926 L 415 925 L 415 924 L 417 922 L 417 921 L 418 920 L 418 919 L 423 914 L 423 913 L 428 908 L 428 907 L 429 906 L 430 906 L 431 905 L 432 905 L 433 904 L 434 905 L 434 906 L 433 907 L 433 908 L 432 909 L 432 911 L 430 913 L 430 914 L 429 915 L 429 916 L 427 918 L 427 919 L 426 920 L 426 921 L 424 923 L 424 924 L 423 925 L 423 926 L 421 928 L 421 929 L 420 930 L 420 931 L 419 932 L 419 933 L 417 935 L 417 936 L 416 937 L 416 938 L 415 939 L 415 940 L 413 942 L 413 944 L 412 945 L 412 946 L 410 948 L 410 949 L 409 950 L 409 951 L 408 952 L 408 954 L 407 955 L 407 956 L 406 957 L 406 958 L 405 959 L 405 961 L 404 962 L 404 963 L 403 964 L 403 965 L 402 966 L 402 968 L 401 969 L 401 971 L 400 972 L 400 973 L 399 974 L 399 976 L 398 977 L 398 979 L 397 980 L 397 982 L 396 983 L 396 985 L 395 986 L 395 988 L 394 989 L 394 991 L 393 992 L 393 994 L 392 995 L 392 997 L 391 998 L 391 1002 L 390 1003 L 390 1005 L 389 1006 L 389 1009 L 388 1010 L 388 1014 L 387 1015 L 387 1019 L 386 1020 L 386 1028 L 381 1033 L 380 1033 L 378 1035 L 377 1035 L 376 1036 L 375 1036 L 374 1037 L 373 1037 L 371 1039 L 370 1039 L 368 1041 L 367 1041 L 364 1044 L 363 1044 L 360 1047 L 359 1047 L 351 1055 L 350 1055 L 348 1057 L 348 1058 L 346 1060 L 345 1060 L 338 1067 L 337 1067 L 336 1066 L 336 1065 L 334 1063 L 334 1062 L 330 1058 L 330 1057 L 327 1054 L 327 1053 L 320 1046 L 320 1045 L 319 1045 L 318 1044 L 318 1043 L 311 1036 L 310 1036 L 301 1027 L 300 1027 L 296 1023 L 295 1023 L 290 1018 L 289 1018 L 287 1016 L 286 1016 L 284 1014 L 283 1014 L 282 1013 L 281 1014 L 280 1013 L 279 1013 L 278 1012 L 277 1012 L 276 1011 L 274 1011 L 273 1010 L 272 1010 L 270 1008 L 269 1008 L 268 1007 L 267 1007 L 266 1006 L 264 1006 L 263 1005 L 261 1005 L 260 1004 L 258 1004 L 257 1003 L 255 1003 L 254 1002 L 252 1002 L 251 1001 L 250 1001 L 249 1000 L 248 1000 L 246 998 L 245 998 L 244 997 L 243 997 L 241 995 L 240 995 L 239 994 L 238 994 L 237 993 L 235 993 L 234 992 L 232 992 L 231 993 L 230 993 L 229 994 L 228 993 L 227 994 L 227 1001 L 226 1002 L 226 1003 L 225 1004 L 225 1009 L 224 1010 L 224 1012 L 223 1013 L 223 1024 L 222 1025 L 222 1039 L 221 1040 L 221 1045 L 220 1046 L 220 1053 L 219 1054 L 219 1056 L 218 1057 L 218 1059 L 217 1060 L 217 1065 L 216 1066 L 216 1069 L 215 1070 L 215 1075 L 214 1076 L 215 1077 L 214 1078 L 214 1080 L 213 1081 L 213 1084 L 212 1085 L 212 1088 L 211 1089 L 211 1090 L 210 1091 L 210 1094 L 209 1095 L 209 1102 L 208 1103 L 207 1103 L 206 1104 L 206 1107 L 205 1108 L 205 1110 L 204 1111 L 204 1114 L 203 1115 L 203 1116 L 202 1117 L 202 1118 L 201 1119 L 201 1121 L 200 1122 L 200 1123 L 199 1124 L 198 1123 L 197 1123 L 196 1122 L 195 1122 L 189 1116 L 188 1116 L 186 1114 L 185 1114 L 184 1113 L 183 1113 L 182 1112 L 181 1112 L 180 1111 L 179 1111 L 177 1109 L 175 1109 L 174 1108 L 173 1108 L 171 1106 L 169 1106 L 168 1105 L 167 1105 L 165 1103 L 163 1103 L 162 1102 L 161 1102 L 160 1101 L 159 1101 L 158 1100 L 157 1100 L 156 1099 L 155 1099 L 154 1098 L 152 1098 L 151 1097 L 150 1097 L 149 1096 L 147 1096 L 146 1095 L 144 1095 L 143 1094 L 140 1094 L 139 1093 L 137 1093 L 136 1092 L 134 1092 L 133 1091 L 131 1091 L 130 1090 L 125 1090 L 124 1089 L 121 1089 L 120 1088 L 91 1088 L 90 1089 L 83 1089 L 82 1090 L 76 1090 L 75 1091 L 71 1091 L 70 1092 L 62 1092 L 61 1093 L 59 1093 L 58 1094 L 56 1094 L 55 1095 L 53 1095 L 52 1096 L 51 1096 L 50 1097 L 49 1097 L 48 1098 L 47 1098 L 46 1099 L 45 1099 L 42 1102 L 41 1102 L 39 1104 L 38 1104 L 34 1108 L 33 1108 L 31 1110 L 31 1111 L 30 1112 L 29 1112 L 28 1113 L 28 1114 L 27 1115 L 26 1115 L 26 1116 L 21 1121 L 21 1122 L 20 1123 L 20 1124 L 19 1125 L 19 1129 L 18 1130 L 18 1142 L 19 1143 L 19 1146 L 20 1147 L 20 1148 L 21 1149 L 21 1150 L 22 1151 L 22 1153 L 24 1155 L 24 1156 L 25 1157 L 25 1158 L 27 1160 L 27 1161 L 29 1163 L 29 1164 L 33 1168 L 33 1169 L 36 1172 L 37 1172 L 41 1176 L 42 1176 L 43 1177 L 44 1177 L 45 1178 L 46 1178 L 47 1179 L 49 1179 L 50 1180 L 51 1180 L 52 1181 L 53 1181 L 54 1182 L 57 1182 L 58 1183 L 68 1183 L 69 1182 L 78 1182 L 79 1181 L 81 1181 L 82 1180 L 83 1180 L 84 1179 L 86 1179 L 87 1178 L 89 1178 L 90 1177 L 93 1177 L 94 1176 L 97 1176 L 98 1175 L 107 1175 L 108 1176 L 113 1176 L 114 1177 L 116 1177 L 117 1178 L 118 1178 L 119 1179 L 121 1179 L 122 1180 L 123 1180 L 124 1181 L 125 1181 L 126 1182 L 127 1182 L 129 1184 L 130 1184 L 132 1186 L 132 1189 L 124 1197 L 124 1198 L 123 1199 L 122 1199 L 122 1200 L 121 1201 L 120 1201 L 119 1202 L 118 1202 L 95 1225 L 94 1225 L 93 1226 L 93 1227 L 89 1231 L 89 1232 L 82 1239 L 82 1240 L 81 1241 L 81 1242 L 77 1246 L 77 1247 L 75 1249 L 75 1250 L 73 1252 L 73 1253 L 72 1254 L 72 1255 L 71 1256 L 71 1257 L 70 1258 L 70 1259 L 69 1260 L 69 1261 L 68 1262 L 68 1263 L 67 1264 L 67 1265 L 66 1266 L 66 1268 L 65 1269 L 65 1272 L 64 1273 L 64 1277 L 63 1278 L 63 1285 L 62 1286 L 63 1287 L 63 1289 L 62 1290 L 62 1298 L 63 1299 L 63 1305 L 64 1306 L 64 1309 L 65 1310 L 65 1313 L 66 1314 L 66 1316 L 67 1317 L 67 1319 L 68 1320 L 68 1323 L 69 1324 L 69 1325 L 70 1326 L 70 1328 L 71 1329 L 71 1331 L 72 1332 L 72 1333 L 73 1334 L 73 1335 L 74 1336 L 74 1337 L 75 1338 L 75 1339 L 77 1341 L 77 1342 L 79 1344 L 79 1345 L 86 1352 L 87 1352 L 89 1354 L 90 1354 L 91 1355 L 92 1355 L 93 1356 L 94 1356 L 95 1357 L 96 1357 L 97 1358 L 99 1358 L 100 1359 L 105 1359 L 106 1360 L 111 1360 L 112 1359 L 115 1359 L 116 1358 L 119 1358 L 120 1357 L 121 1357 L 123 1355 L 124 1355 L 125 1354 L 126 1354 L 128 1352 L 129 1352 L 137 1344 L 137 1343 L 140 1340 L 140 1339 L 144 1335 L 144 1334 L 148 1330 L 149 1330 L 157 1322 L 158 1322 L 159 1321 L 160 1322 L 160 1327 L 159 1328 L 159 1331 L 158 1332 L 158 1336 L 157 1337 L 157 1340 L 156 1341 L 156 1345 L 155 1346 L 155 1364 L 156 1365 L 156 1367 L 157 1368 L 157 1370 L 158 1371 L 158 1374 L 159 1375 L 159 1378 L 160 1379 L 160 1383 L 161 1384 L 161 1386 L 162 1387 L 162 1388 L 163 1389 L 163 1392 L 164 1393 L 164 1394 L 165 1395 L 165 1396 L 166 1397 L 166 1398 L 167 1399 L 167 1400 L 173 1406 L 174 1406 L 175 1407 L 176 1407 L 178 1409 L 179 1409 L 180 1410 L 182 1410 L 183 1411 L 184 1411 L 187 1414 L 188 1414 L 189 1415 L 190 1415 L 191 1416 L 192 1416 L 193 1417 L 194 1417 L 195 1418 L 196 1418 L 197 1419 L 199 1419 L 200 1420 L 202 1420 L 203 1421 L 206 1421 L 207 1420 L 211 1420 L 212 1419 L 216 1419 L 217 1418 L 221 1418 L 222 1417 L 224 1417 L 225 1416 L 228 1416 L 229 1415 L 232 1415 L 233 1414 L 234 1414 L 235 1413 L 236 1413 L 237 1412 L 239 1412 L 241 1410 L 242 1410 L 243 1409 L 244 1409 L 247 1406 L 248 1406 L 263 1391 L 263 1389 L 266 1386 L 266 1385 L 267 1384 L 267 1383 L 268 1382 L 268 1381 L 269 1380 L 269 1379 L 270 1378 L 270 1377 L 271 1376 L 271 1374 L 272 1373 L 272 1372 L 273 1371 L 273 1369 L 274 1368 L 274 1366 L 275 1365 L 275 1364 L 276 1363 L 276 1361 L 277 1360 L 277 1358 L 278 1357 L 278 1356 L 279 1355 L 279 1353 L 281 1351 L 282 1352 L 282 1353 L 283 1354 L 283 1363 L 284 1364 L 284 1383 L 283 1384 L 283 1406 L 284 1407 L 284 1410 L 285 1411 L 285 1414 L 286 1415 L 286 1416 L 287 1417 L 287 1418 L 288 1419 L 288 1420 L 290 1422 L 290 1423 L 299 1432 L 300 1432 L 301 1433 L 303 1433 L 304 1434 L 308 1434 L 309 1435 L 312 1435 L 313 1436 L 320 1436 L 321 1437 L 323 1437 L 324 1436 L 329 1436 L 330 1435 L 333 1435 L 334 1434 L 335 1434 L 336 1433 L 337 1433 L 338 1432 L 339 1432 L 340 1431 L 341 1431 L 343 1429 L 344 1429 L 346 1427 L 347 1427 L 350 1424 L 351 1424 L 352 1423 L 352 1422 L 355 1419 L 355 1418 L 356 1417 L 356 1416 L 358 1414 L 358 1412 L 360 1410 L 360 1409 L 361 1408 L 361 1407 L 363 1405 L 363 1404 L 364 1403 L 364 1402 L 365 1401 L 365 1400 L 366 1399 L 366 1398 L 367 1397 L 367 1396 L 368 1395 L 368 1394 L 369 1393 L 369 1392 L 371 1390 L 371 1389 L 373 1387 L 374 1388 L 374 1389 L 375 1390 L 375 1391 L 376 1392 L 376 1393 L 378 1395 L 378 1396 L 379 1397 L 379 1398 L 380 1399 L 380 1400 L 381 1401 L 381 1402 L 382 1403 L 382 1404 L 383 1405 L 383 1406 L 385 1408 L 385 1409 L 386 1410 L 386 1411 L 389 1414 L 389 1415 L 391 1417 L 391 1418 L 400 1427 L 401 1427 L 403 1429 L 405 1429 L 406 1430 L 408 1430 L 409 1431 L 416 1431 L 417 1430 L 421 1430 L 422 1429 L 424 1429 L 425 1428 L 426 1428 L 427 1427 L 428 1427 L 429 1426 L 430 1426 L 433 1423 L 434 1423 L 437 1420 L 437 1419 L 441 1415 L 441 1414 L 444 1411 L 444 1410 L 445 1409 L 445 1408 L 447 1406 L 447 1405 L 448 1404 L 448 1403 L 450 1401 L 450 1399 L 451 1398 L 451 1396 L 452 1395 L 452 1382 L 451 1381 L 451 1374 L 450 1373 L 450 1370 L 449 1369 L 449 1368 L 448 1367 L 448 1366 L 446 1364 L 446 1363 L 443 1360 L 443 1359 L 441 1357 L 441 1356 L 440 1355 L 440 1354 L 439 1353 L 439 1352 L 438 1351 L 438 1350 L 437 1349 L 437 1348 L 436 1347 L 436 1346 L 434 1344 L 434 1342 L 435 1341 L 437 1341 L 438 1342 L 443 1342 L 444 1343 L 447 1343 L 448 1344 L 451 1344 L 452 1345 L 460 1345 L 461 1346 L 463 1346 L 464 1347 L 466 1347 L 467 1348 L 471 1348 L 472 1347 L 473 1347 L 475 1345 L 475 1344 L 476 1343 L 476 1337 L 475 1336 L 475 1334 L 474 1333 L 474 1331 L 473 1330 L 473 1328 L 472 1327 L 472 1324 L 471 1323 L 471 1322 L 470 1321 L 470 1319 L 469 1318 L 469 1316 L 468 1315 L 468 1313 L 467 1312 L 467 1310 L 466 1309 L 466 1308 L 465 1307 L 465 1306 L 464 1305 L 464 1303 L 463 1302 L 463 1301 L 462 1300 L 462 1299 L 461 1298 L 461 1297 L 460 1296 L 460 1295 L 459 1294 L 459 1293 L 458 1292 L 458 1291 L 457 1290 L 457 1289 L 456 1288 L 456 1287 L 455 1286 L 455 1285 L 454 1284 L 454 1283 L 453 1282 L 453 1281 L 452 1280 L 452 1279 L 451 1278 L 451 1277 L 450 1276 L 450 1275 L 448 1273 L 448 1272 L 447 1271 L 447 1270 L 445 1268 L 445 1267 L 443 1265 L 443 1264 L 442 1263 L 442 1262 L 439 1259 L 439 1258 L 437 1256 L 437 1255 L 434 1252 L 434 1251 L 432 1249 L 432 1248 L 429 1245 L 429 1244 L 426 1241 L 426 1240 L 422 1236 L 422 1235 L 420 1233 L 420 1231 L 421 1230 L 421 1229 L 423 1227 L 423 1225 L 424 1224 L 424 1223 L 425 1222 L 425 1220 L 426 1219 L 426 1217 L 427 1216 L 427 1215 L 428 1214 L 428 1213 L 429 1212 L 429 1210 L 431 1208 L 431 1207 L 432 1206 L 432 1205 L 433 1204 L 433 1203 L 434 1202 L 434 1201 L 435 1200 L 435 1199 L 436 1198 L 436 1197 L 437 1196 L 437 1195 L 438 1194 L 438 1193 L 439 1192 L 439 1191 L 440 1190 L 440 1189 L 441 1188 L 441 1187 L 442 1186 L 442 1185 L 443 1184 L 443 1182 L 444 1181 L 444 1180 L 445 1179 L 445 1178 L 446 1177 L 446 1176 L 447 1175 L 447 1173 L 448 1172 L 448 1171 L 450 1169 L 451 1170 L 451 1174 L 452 1175 L 452 1176 L 453 1177 L 453 1178 L 454 1179 L 454 1180 L 455 1181 L 455 1182 L 457 1184 L 457 1185 L 458 1186 L 458 1188 L 457 1189 L 457 1193 L 456 1194 L 456 1206 L 457 1207 L 457 1208 L 458 1209 L 458 1210 L 459 1211 L 459 1212 L 462 1215 L 462 1216 L 464 1218 L 464 1219 L 467 1222 L 467 1223 L 472 1228 L 473 1228 L 475 1230 L 476 1230 L 477 1231 L 478 1231 L 480 1233 L 482 1233 L 483 1234 L 485 1234 L 486 1235 L 488 1235 L 489 1236 L 493 1236 L 494 1237 L 495 1237 L 496 1238 L 498 1238 L 499 1239 L 504 1239 L 505 1240 L 510 1240 L 511 1239 L 513 1239 L 514 1240 L 516 1240 L 517 1241 L 519 1241 L 520 1242 L 522 1242 L 523 1243 L 524 1243 L 526 1245 L 526 1246 L 527 1247 L 527 1248 L 529 1250 L 529 1251 L 530 1252 L 530 1253 L 532 1255 L 532 1256 L 536 1260 L 536 1261 L 537 1262 L 537 1263 L 538 1264 L 538 1265 L 540 1267 L 540 1268 L 543 1271 L 543 1272 L 547 1276 L 547 1277 L 549 1279 L 549 1280 L 551 1282 L 551 1283 L 558 1290 L 558 1291 L 563 1296 L 563 1297 L 573 1307 L 573 1308 L 582 1317 L 582 1318 L 587 1323 L 587 1324 L 601 1338 L 602 1338 L 610 1346 L 611 1346 L 616 1351 L 617 1351 L 621 1355 L 622 1355 L 625 1358 L 626 1358 L 630 1362 L 631 1362 L 634 1365 L 635 1365 L 637 1367 L 638 1367 L 640 1369 L 641 1369 L 643 1371 L 644 1371 L 646 1373 L 647 1373 L 648 1374 L 649 1374 L 651 1376 L 652 1376 L 653 1377 L 654 1377 L 655 1378 L 656 1378 L 658 1380 L 660 1380 L 662 1382 L 663 1382 L 664 1383 L 665 1383 L 666 1384 L 667 1384 L 669 1386 L 670 1386 L 671 1387 L 672 1387 L 673 1388 L 674 1388 L 675 1389 L 676 1389 L 677 1390 L 678 1390 L 679 1391 L 680 1391 L 681 1392 L 682 1392 L 683 1393 L 684 1393 L 685 1394 L 687 1394 L 688 1395 L 689 1395 L 690 1396 L 692 1396 L 693 1397 L 695 1397 L 696 1398 L 698 1398 L 699 1399 L 701 1399 L 702 1400 L 705 1400 L 706 1401 L 708 1401 L 709 1402 L 712 1402 L 713 1403 L 716 1403 L 717 1404 L 721 1404 L 722 1405 L 729 1405 L 730 1406 L 734 1406 L 735 1407 L 742 1407 L 743 1406 L 745 1406 L 747 1404 L 747 1400 L 748 1399 L 748 1398 L 747 1397 L 747 1395 L 746 1395 L 744 1393 L 743 1393 L 741 1391 L 740 1391 L 731 1382 L 731 1381 L 729 1379 L 729 1378 L 727 1376 L 727 1375 L 726 1374 L 726 1373 L 724 1371 L 724 1370 L 722 1368 L 722 1367 L 721 1366 L 721 1365 L 720 1364 L 720 1363 L 719 1362 L 719 1360 L 718 1359 L 718 1358 L 717 1357 L 717 1356 L 716 1355 L 716 1354 L 715 1353 L 715 1352 L 714 1351 L 714 1349 L 713 1348 L 713 1346 L 712 1345 L 712 1344 L 711 1343 L 711 1338 L 710 1337 L 710 1324 L 711 1323 L 711 1321 L 712 1320 L 713 1320 L 714 1321 L 714 1322 L 717 1325 L 717 1326 L 719 1328 L 719 1329 L 725 1335 L 725 1336 L 726 1336 L 732 1342 L 733 1342 L 735 1344 L 736 1344 L 737 1345 L 738 1345 L 739 1346 L 740 1346 L 741 1347 L 742 1347 L 743 1348 L 744 1348 L 746 1350 L 747 1350 L 748 1351 L 749 1351 L 750 1352 L 751 1352 L 752 1353 L 753 1353 L 754 1354 L 755 1354 L 756 1355 L 759 1355 L 760 1356 L 761 1355 L 764 1355 L 766 1353 L 766 1352 L 767 1351 L 767 1349 L 768 1348 L 768 1345 L 767 1344 L 767 1343 L 764 1340 L 763 1340 L 762 1339 L 762 1338 L 757 1333 L 757 1332 L 756 1331 L 756 1330 L 754 1328 L 754 1326 L 753 1325 L 753 1324 L 752 1323 L 752 1317 L 751 1316 L 751 1310 L 750 1309 L 750 1298 L 751 1297 L 751 1290 L 752 1289 L 752 1284 L 753 1283 L 753 1281 L 754 1280 L 754 1277 L 755 1276 L 755 1274 L 756 1273 L 756 1272 L 757 1271 L 757 1269 L 758 1268 L 758 1267 L 759 1266 L 759 1265 L 760 1264 L 760 1262 L 762 1260 L 762 1258 L 763 1257 L 763 1256 L 764 1255 L 764 1254 L 765 1253 L 765 1252 L 766 1251 L 766 1250 L 767 1249 L 767 1248 L 768 1247 L 768 1246 L 769 1245 L 769 1244 L 771 1242 L 771 1241 L 773 1239 L 775 1239 L 776 1240 L 780 1240 L 781 1239 L 783 1239 L 784 1238 L 785 1238 L 786 1237 L 788 1237 L 789 1238 L 789 1239 L 790 1240 L 790 1242 L 792 1244 L 797 1244 L 798 1245 L 801 1245 L 802 1246 L 814 1246 L 815 1245 L 819 1245 L 820 1244 L 824 1244 L 825 1243 L 827 1243 L 828 1242 L 830 1242 L 831 1241 L 833 1241 L 834 1240 L 836 1240 L 837 1239 L 838 1239 L 839 1238 L 840 1238 L 841 1237 L 842 1237 L 843 1236 L 844 1236 L 845 1235 L 846 1235 L 849 1232 L 850 1232 L 854 1228 L 854 1227 L 858 1223 L 858 1222 L 862 1218 L 865 1218 L 866 1217 L 881 1217 L 882 1216 L 887 1216 L 888 1215 L 892 1215 L 893 1214 L 896 1214 L 897 1213 L 899 1213 L 900 1212 L 901 1212 L 902 1211 L 904 1211 L 906 1209 L 907 1209 L 909 1207 L 910 1207 L 912 1205 L 913 1205 L 915 1203 L 917 1203 L 921 1207 L 921 1208 L 926 1213 L 926 1214 L 928 1216 L 929 1216 L 930 1217 L 931 1217 L 933 1219 L 934 1219 L 937 1222 L 938 1222 L 941 1225 L 942 1225 L 943 1226 L 944 1226 L 946 1228 L 947 1228 L 949 1230 L 950 1230 L 951 1231 L 952 1231 L 953 1232 L 954 1232 L 955 1233 L 956 1233 L 957 1234 L 958 1234 L 959 1235 L 960 1235 L 961 1236 L 962 1236 L 963 1237 L 964 1237 L 965 1238 L 967 1238 L 968 1239 L 969 1239 L 970 1240 L 972 1240 L 973 1241 L 975 1241 L 976 1242 L 978 1242 L 979 1243 L 981 1243 L 982 1244 L 985 1244 L 986 1245 L 989 1245 L 990 1246 L 993 1246 L 994 1247 L 1000 1247 L 1001 1248 L 1005 1248 L 1006 1249 L 1014 1249 L 1015 1250 L 1026 1250 L 1027 1249 L 1032 1249 L 1033 1248 L 1036 1248 L 1037 1247 L 1039 1247 L 1040 1246 L 1041 1246 L 1042 1245 L 1043 1245 L 1044 1244 L 1045 1244 L 1046 1243 L 1047 1243 L 1049 1241 L 1057 1241 L 1058 1242 L 1060 1242 L 1061 1241 L 1065 1241 L 1066 1240 L 1068 1240 L 1069 1239 L 1071 1239 L 1072 1238 L 1073 1238 L 1075 1236 L 1076 1236 L 1089 1223 L 1089 1222 L 1091 1220 L 1091 1218 L 1092 1217 L 1092 1216 L 1093 1215 L 1093 1214 L 1094 1213 L 1094 1210 L 1095 1209 L 1095 1201 L 1096 1200 L 1096 1191 L 1095 1190 L 1095 1179 L 1094 1178 L 1094 1169 L 1093 1168 L 1093 1165 L 1092 1164 L 1092 1162 L 1091 1161 L 1091 1160 L 1089 1158 L 1089 1157 L 1088 1156 L 1088 1150 L 1087 1149 L 1087 1145 L 1086 1144 L 1086 1140 L 1085 1139 L 1085 1138 L 1086 1137 L 1087 1137 L 1088 1136 L 1089 1136 L 1091 1134 L 1092 1134 L 1093 1133 L 1094 1133 L 1095 1132 L 1099 1132 L 1100 1131 L 1101 1131 L 1102 1130 L 1108 1130 L 1110 1128 L 1111 1128 L 1112 1127 L 1114 1127 L 1115 1126 L 1116 1126 L 1118 1124 L 1119 1124 L 1126 1117 L 1126 1116 L 1129 1113 L 1129 1112 L 1132 1109 L 1132 1108 L 1133 1107 L 1133 1106 L 1134 1105 L 1134 1104 L 1135 1103 L 1135 1102 L 1136 1101 L 1136 1100 L 1138 1098 L 1138 1097 L 1139 1096 L 1140 1096 L 1143 1093 L 1144 1093 L 1145 1092 L 1146 1092 L 1148 1090 L 1149 1090 L 1150 1089 L 1151 1089 L 1153 1087 L 1154 1087 L 1164 1077 L 1164 1076 L 1167 1073 L 1167 1072 L 1168 1071 L 1168 1070 L 1169 1069 L 1169 1068 L 1170 1067 L 1170 1066 L 1171 1065 L 1171 1064 L 1172 1063 L 1172 1061 L 1173 1060 L 1173 1058 L 1174 1057 L 1174 1056 L 1175 1055 L 1175 1051 L 1176 1050 L 1176 1048 L 1175 1047 L 1175 1042 L 1177 1040 L 1178 1040 L 1183 1035 L 1183 1034 L 1184 1033 L 1184 1032 L 1185 1031 L 1185 1027 L 1186 1026 L 1186 1006 L 1185 1005 L 1185 1004 L 1184 1003 L 1184 1001 L 1183 1000 L 1183 997 L 1182 996 L 1182 994 L 1181 993 L 1181 991 L 1178 988 L 1178 987 L 1173 982 L 1173 981 L 1166 974 L 1165 974 L 1163 972 L 1162 972 L 1160 970 L 1159 970 L 1158 969 L 1157 969 L 1156 968 L 1155 968 L 1154 967 L 1153 967 L 1152 966 L 1151 966 L 1150 965 L 1149 965 L 1148 964 L 1147 964 L 1146 963 L 1144 963 L 1143 962 L 1134 962 L 1133 963 L 1132 963 L 1131 964 L 1130 964 L 1129 965 L 1126 965 L 1125 966 L 1124 966 L 1123 967 L 1121 967 L 1120 968 L 1119 968 L 1118 969 L 1117 969 L 1116 970 L 1114 970 L 1113 969 L 1113 966 L 1114 965 L 1114 964 L 1115 963 L 1115 960 L 1116 959 L 1116 953 L 1117 952 L 1117 946 L 1118 945 L 1118 937 L 1119 936 L 1119 930 L 1120 929 L 1120 924 L 1121 923 L 1121 915 L 1122 914 L 1122 909 L 1123 908 L 1123 904 L 1124 903 L 1124 895 L 1125 894 L 1125 885 L 1126 884 L 1126 878 L 1127 877 L 1127 874 L 1128 873 L 1128 868 L 1129 867 L 1129 858 L 1130 857 L 1130 853 L 1131 852 L 1131 847 L 1132 846 L 1132 840 L 1133 839 L 1133 834 L 1134 833 L 1134 829 L 1135 828 L 1135 823 L 1136 822 L 1136 821 L 1137 820 L 1137 817 L 1138 816 L 1138 813 L 1139 812 L 1139 811 L 1140 810 L 1140 806 L 1141 805 L 1141 804 L 1142 803 L 1142 801 L 1143 800 L 1143 798 L 1144 797 L 1144 796 L 1145 795 L 1145 793 L 1147 791 L 1147 790 L 1149 788 L 1150 788 L 1152 786 L 1152 783 L 1153 782 L 1153 781 L 1154 780 L 1154 777 L 1155 776 L 1155 775 L 1156 774 L 1162 774 L 1163 775 L 1164 775 L 1165 776 L 1170 776 L 1171 777 L 1172 777 L 1173 776 L 1174 776 L 1175 775 L 1175 770 L 1176 769 L 1176 767 L 1177 766 L 1177 765 L 1176 764 L 1176 763 L 1174 761 L 1174 756 L 1175 755 L 1179 759 L 1180 759 L 1183 762 L 1184 762 L 1185 763 L 1185 764 L 1186 764 L 1191 769 L 1192 769 L 1194 771 L 1195 771 L 1196 772 L 1197 772 L 1198 773 L 1199 773 L 1200 774 L 1201 774 L 1202 775 L 1203 775 L 1205 777 L 1206 777 L 1208 779 L 1209 779 L 1211 781 L 1212 781 L 1213 782 L 1214 782 L 1215 783 L 1216 783 L 1217 784 L 1218 784 L 1219 785 L 1220 785 L 1221 786 L 1222 786 L 1224 788 L 1225 788 L 1234 797 L 1236 797 L 1238 799 L 1239 799 L 1240 800 L 1242 800 L 1243 801 L 1244 801 L 1245 800 L 1245 794 L 1246 793 L 1246 792 L 1245 791 L 1245 789 L 1246 788 L 1246 785 L 1245 784 L 1245 781 L 1244 780 L 1244 778 L 1243 777 L 1243 775 L 1242 774 L 1242 772 L 1241 771 L 1241 769 L 1240 768 L 1240 765 L 1239 764 L 1239 762 L 1238 761 L 1238 759 L 1237 758 L 1237 756 L 1236 755 L 1236 752 L 1235 751 L 1235 746 L 1234 745 L 1234 743 L 1233 742 L 1233 740 L 1232 739 L 1232 738 L 1231 737 L 1231 735 L 1230 734 L 1230 732 L 1229 731 L 1229 729 L 1228 728 L 1228 727 L 1227 726 L 1227 722 L 1226 721 L 1226 719 L 1225 718 L 1225 716 L 1224 715 L 1224 713 L 1223 712 L 1223 710 L 1222 709 L 1222 708 L 1221 707 L 1221 704 L 1220 703 L 1225 698 L 1226 698 L 1228 696 L 1229 696 L 1230 695 L 1231 695 L 1232 694 L 1233 694 L 1234 693 L 1235 693 L 1236 692 L 1237 692 L 1238 691 L 1239 691 L 1240 690 L 1242 690 L 1245 687 L 1246 687 L 1248 685 L 1249 685 L 1250 684 L 1251 684 L 1253 682 L 1254 682 L 1255 681 L 1256 681 L 1257 680 L 1258 680 L 1259 679 L 1260 679 L 1261 678 L 1262 678 L 1263 677 L 1264 677 L 1265 676 L 1266 676 L 1267 675 L 1269 675 L 1270 674 L 1271 674 L 1272 673 L 1273 673 L 1274 672 L 1275 672 L 1276 671 L 1277 671 L 1278 670 L 1280 670 L 1281 669 L 1283 669 L 1284 668 L 1286 668 L 1287 667 L 1288 667 L 1289 666 L 1290 666 L 1291 665 L 1293 665 L 1294 664 L 1295 664 L 1296 663 L 1298 663 L 1299 662 L 1300 662 L 1301 661 L 1302 661 L 1303 660 L 1305 660 L 1306 659 L 1307 659 L 1308 658 L 1309 658 L 1310 657 L 1311 657 L 1312 656 L 1314 656 L 1315 655 L 1318 655 L 1319 654 L 1322 654 L 1323 653 L 1328 653 L 1330 651 L 1330 648 L 1331 647 L 1331 645 L 1330 645 L 1329 644 L 1328 644 L 1327 643 L 1326 643 L 1325 642 L 1324 642 L 1319 637 L 1318 637 L 1316 635 L 1315 635 L 1314 634 L 1310 634 L 1309 633 L 1307 633 L 1306 632 L 1303 632 L 1302 631 L 1300 631 L 1299 630 L 1297 630 L 1296 629 L 1294 629 L 1293 628 L 1288 628 L 1287 627 L 1286 627 L 1285 626 L 1284 626 L 1283 625 L 1282 625 L 1281 624 L 1279 624 L 1278 623 L 1275 623 L 1274 622 L 1272 622 L 1271 621 L 1270 621 L 1269 620 L 1268 620 L 1267 619 L 1264 619 L 1263 618 L 1261 618 L 1260 617 L 1258 617 L 1257 616 L 1256 616 L 1255 615 L 1254 615 L 1253 614 L 1252 614 L 1251 613 L 1250 613 L 1249 612 L 1247 612 L 1246 611 L 1245 611 L 1244 610 L 1243 610 L 1242 609 L 1241 609 L 1233 601 L 1233 600 L 1231 598 L 1231 588 L 1230 587 L 1230 584 L 1229 583 L 1229 580 L 1228 579 L 1228 555 L 1227 554 L 1227 550 L 1226 549 L 1226 545 L 1225 544 L 1225 540 L 1224 539 L 1224 534 L 1223 533 L 1223 531 L 1222 530 L 1222 525 L 1221 524 L 1221 518 L 1220 517 L 1220 515 L 1219 514 L 1219 511 L 1218 510 L 1218 509 L 1217 508 L 1217 507 L 1216 506 L 1216 505 L 1214 503 L 1214 502 L 1213 501 L 1213 499 L 1212 498 L 1212 496 L 1211 495 L 1211 494 L 1209 492 L 1204 492 L 1203 491 L 1199 491 L 1198 492 L 1198 494 L 1197 495 L 1197 496 L 1196 497 L 1196 498 L 1194 500 L 1194 501 L 1193 502 L 1193 503 L 1192 504 L 1192 505 L 1191 506 L 1191 507 L 1189 509 L 1189 510 L 1188 511 L 1188 512 L 1186 514 L 1186 515 L 1184 517 L 1184 518 L 1182 520 L 1182 521 L 1179 524 L 1179 525 L 1177 527 L 1177 528 L 1172 533 L 1172 534 L 1169 537 L 1169 538 L 1166 541 L 1166 542 L 1152 556 L 1152 557 L 1146 563 L 1146 564 L 1139 571 L 1138 571 L 1137 572 L 1136 572 L 1134 574 L 1133 574 L 1131 576 L 1131 577 L 1129 579 L 1128 578 L 1126 578 L 1125 577 L 1122 577 L 1121 576 L 1117 576 L 1116 575 L 1113 575 L 1112 574 L 1109 574 L 1108 573 L 1103 573 L 1102 572 L 1101 572 L 1100 571 L 1097 571 L 1096 570 L 1095 570 L 1094 569 L 1092 569 L 1091 568 L 1087 568 L 1086 567 L 1085 567 L 1084 566 L 1082 566 L 1081 565 L 1076 565 L 1075 564 L 1072 564 L 1071 563 L 1065 563 L 1064 562 L 1061 562 L 1060 561 L 1058 561 L 1057 560 L 1054 560 L 1052 558 L 1051 558 L 1050 557 L 1045 557 L 1044 558 L 1043 558 L 1041 560 L 1041 561 L 1040 562 L 1040 563 L 1041 564 L 1041 565 L 1043 567 L 1043 568 L 1048 573 L 1048 574 L 1051 577 L 1051 578 L 1052 579 L 1052 580 L 1055 583 L 1055 584 L 1057 586 L 1057 587 L 1058 588 L 1058 589 L 1059 590 L 1059 591 L 1061 593 L 1061 594 L 1062 595 L 1062 596 L 1064 598 L 1064 599 L 1066 601 L 1066 602 L 1069 605 L 1069 606 L 1070 607 L 1070 608 L 1071 609 L 1071 610 L 1073 612 L 1073 613 L 1075 615 L 1075 616 L 1078 619 L 1078 620 L 1081 623 L 1081 624 L 1083 626 L 1083 627 L 1088 632 L 1088 633 L 1090 635 L 1090 636 L 1092 638 L 1092 639 L 1094 641 L 1094 642 L 1095 643 L 1095 644 L 1096 645 L 1096 646 L 1098 648 L 1098 649 L 1099 650 L 1099 651 L 1101 653 L 1101 654 L 1102 655 L 1102 656 L 1103 657 L 1103 658 L 1102 659 L 1101 659 L 1100 660 L 1099 660 L 1097 662 L 1096 662 L 1094 664 L 1093 664 L 1092 665 L 1091 665 L 1090 666 L 1089 666 L 1087 668 L 1086 668 L 1085 669 L 1084 669 L 1083 670 L 1082 670 L 1081 671 L 1080 671 L 1079 672 L 1078 672 L 1076 674 L 1075 674 L 1074 675 L 1073 675 L 1071 677 L 1070 677 L 1069 678 L 1068 678 L 1066 680 L 1065 680 L 1064 681 L 1063 681 L 1062 682 L 1061 682 L 1060 683 L 1059 683 L 1058 684 L 1057 684 L 1056 685 L 1055 685 L 1053 687 L 1052 687 L 1051 688 L 1050 688 L 1048 690 L 1047 690 L 1046 691 L 1045 691 L 1043 693 L 1042 693 L 1040 695 L 1039 695 L 1038 696 L 1037 696 L 1036 697 L 1035 697 L 1033 699 L 1032 699 L 1031 700 L 1030 700 L 1029 701 L 1027 701 L 1026 702 L 1024 702 L 1023 703 L 1023 704 L 1021 706 L 1021 710 L 1025 714 L 1026 714 L 1027 715 L 1028 715 L 1029 716 L 1031 716 L 1032 717 L 1038 717 L 1039 718 L 1042 718 L 1043 719 L 1046 719 L 1047 720 L 1053 720 L 1054 721 L 1059 721 L 1060 722 L 1070 722 L 1071 723 L 1086 723 L 1087 724 L 1088 724 L 1089 723 L 1090 724 L 1095 724 L 1096 725 L 1116 725 L 1117 726 L 1124 726 L 1125 727 L 1125 728 L 1123 730 L 1123 731 L 1120 734 L 1120 735 L 1118 737 L 1118 738 L 1116 740 L 1116 741 L 1115 742 L 1115 743 L 1109 749 L 1109 750 L 1105 754 L 1105 755 L 1106 756 L 1106 758 L 1107 759 L 1107 760 L 1110 763 L 1112 763 L 1114 765 L 1114 766 L 1112 768 L 1112 770 L 1111 771 L 1111 772 L 1110 773 L 1110 774 L 1109 775 L 1109 776 L 1108 777 L 1108 779 L 1107 780 L 1107 782 L 1106 783 L 1106 785 L 1105 786 L 1105 787 L 1104 788 L 1104 789 L 1103 790 L 1103 791 L 1102 792 L 1102 795 L 1101 796 L 1101 797 L 1100 798 L 1100 801 L 1099 802 L 1099 803 L 1098 804 L 1098 805 L 1097 806 L 1097 809 L 1096 810 L 1096 811 L 1095 812 L 1095 814 L 1094 815 L 1094 818 L 1093 819 L 1093 821 L 1092 822 L 1092 824 L 1091 825 L 1091 828 L 1090 829 L 1090 831 L 1089 832 L 1089 835 L 1088 836 L 1088 838 L 1087 839 L 1087 840 L 1086 841 L 1086 843 L 1085 844 L 1085 846 L 1084 847 L 1084 849 L 1083 850 L 1083 856 L 1082 857 L 1082 866 L 1081 867 L 1081 873 L 1080 874 L 1080 883 L 1079 884 L 1079 886 L 1078 887 L 1078 897 L 1077 898 L 1077 901 L 1076 902 L 1076 907 L 1075 908 L 1075 917 L 1074 918 L 1074 925 L 1073 926 L 1073 929 L 1072 930 L 1072 931 L 1071 932 L 1070 931 L 1069 931 L 1068 930 L 1067 930 L 1066 929 L 1065 929 L 1064 928 L 1063 928 L 1062 927 L 1060 927 L 1059 926 L 1055 926 L 1054 925 L 1036 925 L 1035 926 L 1032 926 L 1031 927 L 1029 927 L 1028 928 L 1027 928 L 1026 929 L 1025 929 L 1024 930 L 1023 930 L 1021 932 L 1020 932 L 1015 937 L 1015 938 L 1012 941 L 1012 942 L 1011 943 L 1011 944 L 1010 945 L 1010 946 L 1009 947 L 1009 948 L 1007 950 L 1007 952 L 1006 953 L 1006 963 L 1007 964 L 1007 973 L 1008 974 L 1008 977 L 1009 978 L 1009 981 L 1010 982 L 1010 989 L 1011 990 L 1011 992 L 1012 993 L 1012 995 L 1013 996 L 1013 998 L 1014 999 L 1013 1000 L 1013 1004 L 1009 1008 L 1008 1008 L 1007 1009 L 1006 1009 L 1005 1010 L 1004 1010 L 1003 1011 L 1002 1011 L 1000 1013 L 999 1013 L 994 1018 L 994 1019 L 992 1021 L 992 1022 L 990 1024 L 990 1025 L 989 1026 L 989 1027 L 988 1028 L 988 1031 L 987 1032 L 987 1035 L 986 1036 L 986 1037 L 985 1038 L 984 1038 L 983 1039 L 982 1039 L 980 1041 L 978 1041 L 976 1043 L 966 1043 L 965 1042 L 964 1042 L 963 1041 L 961 1041 L 960 1040 L 959 1040 L 958 1039 L 957 1039 L 956 1038 L 954 1038 L 953 1037 L 952 1037 L 950 1035 L 948 1035 L 946 1033 L 945 1033 L 944 1032 L 943 1032 L 941 1030 L 940 1030 L 937 1027 L 936 1027 L 932 1023 L 931 1023 L 928 1020 L 927 1020 L 924 1017 L 923 1017 L 921 1015 L 920 1015 L 918 1013 L 917 1013 L 915 1011 L 914 1011 L 913 1010 L 912 1010 L 911 1009 L 910 1009 L 909 1008 L 899 1008 L 898 1009 L 897 1009 L 896 1010 L 894 1010 L 893 1011 L 890 1011 L 888 1009 L 887 1009 L 883 1005 L 882 1005 L 880 1003 L 879 1003 L 877 1001 L 876 1001 L 873 998 L 872 998 L 871 997 L 870 997 L 869 996 L 868 996 L 866 994 L 864 994 L 863 993 L 861 993 L 860 992 L 856 992 L 855 991 L 851 991 L 850 990 L 838 990 L 836 988 L 836 987 L 834 987 L 832 989 L 831 989 L 830 988 L 830 987 L 829 987 L 827 985 L 826 985 L 825 984 L 824 984 L 822 982 L 821 982 L 820 981 L 819 981 L 818 980 L 817 980 L 815 978 L 814 978 L 813 977 L 812 977 L 811 976 L 810 976 L 809 975 L 808 975 L 807 974 L 806 974 L 805 973 L 804 973 L 802 971 L 800 971 L 798 969 L 797 969 L 795 967 L 794 967 L 793 966 L 792 966 L 791 965 L 790 965 L 788 963 L 787 963 L 786 962 L 785 962 L 782 959 L 781 959 L 779 957 L 778 957 L 771 950 L 770 950 L 769 949 L 769 948 L 767 946 L 767 944 L 768 943 L 769 943 L 770 944 L 775 944 L 776 945 L 785 945 L 786 946 L 795 946 L 796 947 L 812 947 L 813 948 L 821 948 L 822 947 L 843 947 L 844 946 L 864 946 L 865 947 L 867 947 L 868 948 L 870 948 L 871 949 L 872 949 L 873 950 L 874 950 L 875 951 L 876 951 L 878 953 L 879 953 L 887 961 L 887 962 L 894 969 L 895 969 L 896 970 L 902 970 L 903 969 L 904 969 L 905 968 L 905 961 L 904 960 L 904 959 L 901 956 L 901 955 L 900 955 L 899 954 L 899 953 L 896 950 L 896 949 L 895 948 L 895 947 L 893 945 L 893 944 L 892 943 L 892 942 L 891 941 L 891 939 L 890 938 L 890 930 L 893 927 L 894 928 L 896 928 L 897 929 L 903 929 L 904 930 L 907 930 L 908 931 L 913 931 L 914 932 L 920 932 L 921 933 L 926 933 L 927 934 L 948 934 L 949 933 L 954 933 L 955 932 L 957 932 L 958 931 L 960 931 L 961 930 L 962 930 L 963 929 L 964 929 L 965 928 L 966 928 L 967 927 L 968 927 L 969 926 L 970 926 L 972 924 L 973 924 L 976 921 L 977 921 L 986 912 L 987 912 L 991 908 L 991 903 L 990 902 L 990 901 L 986 897 L 985 897 L 984 898 L 983 898 L 981 900 L 980 900 L 977 903 L 976 903 L 974 905 L 972 905 L 971 906 L 964 906 L 963 905 L 959 905 L 958 904 L 957 904 L 956 903 L 955 903 L 953 901 L 952 901 L 948 897 L 947 897 L 944 894 L 944 893 L 938 887 L 938 886 L 936 884 L 936 883 L 935 882 L 937 880 L 946 880 L 947 879 L 951 879 L 952 878 L 955 878 L 956 877 L 959 877 L 960 876 L 962 876 L 963 875 L 966 875 L 967 874 L 970 874 L 971 873 L 974 873 L 975 872 L 978 872 L 979 871 L 980 871 L 981 870 L 983 870 L 984 869 L 985 869 L 986 868 L 987 868 L 988 867 L 989 867 L 990 866 L 992 866 L 993 865 L 994 865 L 995 864 L 996 864 L 997 863 L 998 863 L 999 862 L 1000 862 L 1001 861 L 1002 861 L 1003 860 L 1004 860 L 1005 859 L 1006 859 L 1007 858 L 1008 858 L 1009 857 L 1010 857 L 1011 856 L 1012 856 L 1013 855 L 1014 855 L 1015 854 L 1016 854 L 1017 853 L 1018 853 L 1021 850 L 1022 850 L 1023 849 L 1024 849 L 1027 846 L 1028 846 L 1029 845 L 1030 845 L 1033 842 L 1034 842 L 1036 840 L 1037 840 L 1040 837 L 1041 837 L 1044 834 L 1045 834 L 1048 831 L 1049 831 L 1052 828 L 1053 828 L 1058 823 L 1058 822 L 1061 819 L 1061 818 L 1062 817 L 1062 816 L 1063 815 L 1063 814 L 1064 813 L 1064 811 L 1065 810 L 1065 809 L 1066 808 L 1066 807 L 1067 806 L 1067 803 L 1068 802 L 1068 800 L 1069 799 L 1069 794 L 1070 793 L 1070 791 L 1071 790 L 1071 776 L 1070 775 L 1070 773 L 1069 772 L 1069 770 L 1068 769 L 1068 768 L 1066 766 L 1066 765 L 1064 763 L 1064 762 L 1061 759 L 1061 758 L 1045 742 L 1044 742 L 1042 740 L 1040 740 L 1038 738 L 1037 738 L 1035 736 L 1034 736 L 1032 734 L 1031 734 L 1030 733 L 1029 733 L 1027 731 L 1026 731 L 1024 729 L 1023 729 L 1022 728 L 1020 728 L 1019 727 L 1018 727 L 1017 726 L 1016 726 L 1015 725 L 1013 725 L 1012 724 L 1011 724 L 1010 723 L 1007 723 L 1006 722 L 1004 722 L 1003 721 L 1001 721 L 1000 720 L 997 720 L 996 719 L 995 719 L 994 718 L 992 718 L 991 717 L 988 717 L 987 716 L 986 716 L 985 715 L 982 715 L 981 714 L 979 714 L 978 713 L 976 713 L 975 712 L 971 712 L 970 711 L 968 711 L 967 710 L 964 710 L 963 709 L 958 709 L 957 708 L 953 708 L 952 707 L 947 707 L 946 706 L 942 706 L 941 705 L 941 703 L 942 702 L 942 701 L 945 698 L 946 698 L 948 696 L 949 696 L 950 695 L 951 695 L 954 692 L 955 692 L 958 689 L 959 689 L 963 685 L 964 685 L 976 673 L 977 673 L 980 670 L 981 670 L 991 660 L 991 659 L 993 657 L 994 657 L 995 656 L 996 656 L 996 655 L 999 652 L 999 651 L 1000 650 L 1000 649 L 1001 648 L 1001 647 L 1002 646 L 1002 645 L 1003 644 L 1003 642 L 1004 641 L 1004 639 L 1005 638 L 1005 635 L 1006 634 L 1006 632 L 1007 631 L 1007 618 L 1006 617 L 1006 613 L 1005 612 L 1005 611 L 1004 610 L 1004 606 L 1003 605 L 1003 604 L 1002 603 L 1002 602 L 1001 601 L 1001 600 L 1000 599 L 1000 598 L 996 594 L 996 593 L 991 588 L 990 588 L 983 581 L 982 581 L 978 577 L 977 577 L 973 573 L 972 573 L 968 569 L 967 569 L 964 566 L 963 566 L 960 563 L 959 563 L 957 561 L 956 561 L 955 560 L 954 560 L 952 558 L 951 558 L 949 556 L 948 556 L 947 555 L 946 555 L 944 553 L 943 553 L 941 551 L 940 551 L 939 550 L 938 550 L 936 548 L 935 548 L 933 546 L 931 546 L 929 544 L 928 544 L 927 543 L 926 543 L 925 542 L 924 542 L 923 541 L 921 541 L 920 540 L 919 540 L 918 539 L 917 539 L 916 538 L 915 538 L 914 537 L 913 537 L 912 536 L 911 536 L 910 535 L 909 535 L 908 534 L 907 534 L 906 533 L 904 533 L 903 532 L 902 532 L 901 531 L 900 531 L 899 530 L 897 530 L 896 529 L 894 529 L 893 528 L 892 528 L 891 527 L 889 527 L 888 526 L 886 526 L 885 525 L 884 525 L 883 524 L 881 524 L 880 523 L 879 523 L 878 522 L 876 522 L 875 521 L 874 521 L 871 518 L 870 518 L 868 516 L 868 514 L 865 511 L 865 508 L 864 507 L 864 505 L 863 504 L 863 500 L 862 499 L 862 497 L 861 496 L 861 494 L 860 493 L 860 490 L 859 489 L 859 487 L 858 486 L 858 484 L 857 483 L 857 481 L 856 480 L 856 479 L 855 478 L 855 475 L 854 474 L 854 472 L 853 471 L 853 469 L 852 468 L 852 465 L 851 464 L 851 463 L 850 462 L 850 460 L 849 459 L 849 457 L 848 456 L 848 454 L 847 453 L 847 451 L 846 450 L 846 448 L 845 447 L 845 446 L 844 445 L 844 444 L 843 443 L 843 441 L 842 440 L 842 439 L 841 438 L 841 435 L 840 434 L 840 433 L 839 432 L 839 430 L 838 429 L 838 427 L 837 426 L 837 425 L 836 424 L 836 423 L 835 422 L 835 420 L 834 419 L 834 418 L 833 417 L 833 415 L 832 414 L 832 413 L 831 412 L 831 411 L 830 410 L 830 409 L 829 408 L 829 407 L 828 406 L 828 405 L 827 404 L 827 403 L 826 402 L 826 401 L 825 400 L 825 399 L 824 398 L 824 397 L 822 395 L 822 393 L 820 391 L 820 390 L 819 389 L 819 388 L 817 386 L 817 385 L 816 384 L 816 383 L 815 382 L 815 381 L 813 379 L 813 378 L 812 377 L 812 376 L 811 375 L 811 374 L 807 370 L 807 369 L 806 368 L 806 367 L 804 365 L 804 364 L 802 362 L 802 361 L 801 360 L 801 359 L 800 358 L 800 357 L 797 354 L 797 353 L 795 351 L 795 350 L 794 349 L 794 348 L 792 346 L 792 345 L 790 343 L 790 342 L 788 340 L 788 339 L 786 337 L 786 336 L 784 334 L 784 333 L 781 330 L 781 329 L 779 327 L 779 326 L 776 323 L 776 322 L 772 318 L 772 317 L 767 312 L 767 311 L 758 302 L 758 301 L 757 301 L 756 300 L 756 299 L 745 288 L 745 287 L 716 258 L 715 258 L 710 253 L 709 253 L 704 248 L 703 248 L 701 246 L 700 246 L 698 244 L 697 244 L 692 239 L 691 239 L 689 237 L 688 237 L 685 234 L 684 234 L 680 230 L 679 230 L 675 226 L 674 226 L 670 222 L 669 222 L 667 220 L 666 220 L 663 217 L 662 217 L 660 215 L 659 215 L 657 213 L 656 213 L 654 211 L 653 211 L 652 210 L 651 210 L 650 209 L 649 209 L 646 206 L 645 206 L 644 205 L 643 205 L 642 204 L 641 204 L 639 202 L 638 202 L 637 201 L 636 201 L 634 199 L 633 199 L 631 197 L 630 197 L 629 196 L 628 196 L 626 194 L 625 194 L 624 193 L 623 193 L 621 191 L 620 191 L 619 190 L 618 190 L 617 189 L 616 189 L 615 188 L 614 188 L 613 187 L 612 187 L 611 186 L 610 186 L 609 185 L 607 185 L 605 183 L 603 183 L 602 182 L 601 182 L 600 181 L 599 181 L 598 180 L 596 180 L 595 179 L 593 179 L 592 178 L 591 178 L 590 177 L 588 177 L 587 176 L 586 176 L 585 175 L 584 175 L 583 174 L 582 174 L 581 173 L 580 173 L 579 172 L 577 172 L 576 171 L 575 171 L 574 170 L 573 170 L 572 169 L 570 169 L 569 168 L 568 168 L 567 167 L 566 167 L 565 166 L 562 166 L 561 165 L 558 165 L 557 164 L 550 164 L 549 163 L 545 163 L 544 162 L 540 162 L 539 161 L 537 161 L 536 160 L 534 160 L 533 159 L 530 159 L 529 158 L 526 158 L 525 157 L 522 157 L 521 156 L 518 156 L 517 155 L 514 155 L 513 156 L 509 156 L 508 155 L 503 155 L 502 154 L 500 154 L 499 153 L 497 153 L 496 152 L 492 152 L 491 151 L 489 151 L 488 150 L 484 150 L 483 149 L 476 149 L 475 148 L 471 148 L 470 147 L 463 147 L 462 146 L 455 146 L 454 145 L 447 145 L 446 144 L 427 144 L 426 143 L 400 143 L 399 142 L 378 142 L 377 143 L 376 143 L 375 142 L 361 142 L 360 143 L 359 142 L 358 143 L 357 142 Z" fill="black" /></svg>